#!OML:ASF F:\VICON\USERDATA\INSTALL\rory3\rory3.ASF
:FULLY-SPECIFIED
:DEGREES
319
root 0.385631 17.7604 -18.8466 1.24595 2.57516 -0.298402
lowerback 7.40755 0.788393 0.854964
upperback 2.5545 1.14669 1.78788
thorax -1.53544 0.56964 1.26195
lowerneck -17.5163 -5.3988 -8.36644
upperneck 9.5447 -6.49858 8.6425
head 6.31573 -2.77911 3.43667
rclavicle 1.48095e-014 -2.46493e-014
rhumerus -19.7982 -4.33255 -76.5666
rradius 44.0923
rwrist 0.227243
rhand -17.6425 12.8409
rfingers 7.12502
rthumb 8.61535 -16.9633
lclavicle 1.48095e-014 -2.46493e-014
lhumerus -29.9986 3.73969 80.1805
lradius 39.5112
lwrist 2.98208
lhand -21.117 24.7515
lfingers 7.12502
lthumb 5.26138 54.6662
rfemur -13.0119 5.10818 20.5821
rtibia 24.455
rfoot -22.0919 -12.6626
rtoes -1.20605
lfemur -14.7464 -3.94161 -16.8895
ltibia 24.0819
lfoot -25.4739 9.14069
ltoes -10.2212
320
root 0.380916 17.7592 -18.8525 1.06866 2.54118 -0.338369
lowerback 7.44668 0.870487 0.534857
upperback 2.41963 1.23818 1.8768
thorax -1.70634 0.614933 1.52379
lowerneck -17.2733 -5.37204 -8.42662
upperneck 9.92381 -6.46107 8.4413
head 6.38755 -2.78297 3.38888
rclavicle 1.39149e-015 -2.38542e-015
rhumerus -20.203 -4.66623 -76.4638
rradius 43.7611
rwrist 0.618376
rhand -17.1866 13.2591
rfingers 7.12502
rthumb 9.0553 -16.5266
lclavicle 1.39149e-015 -2.38542e-015
lhumerus -30.1941 4.30883 80.2483
lradius 38.8532
lwrist 2.70003
lhand -20.995 24.9035
lfingers 7.12502
lthumb 5.37915 54.8152
rfemur -12.8074 5.12085 20.6592
rtibia 24.4039
rfoot -22.1392 -12.6664
rtoes -0.771259
lfemur -14.5658 -4.09203 -16.835
ltibia 24.0843
lfoot -25.5695 9.20692
ltoes -10.9461
321
root 0.374149 17.7552 -18.86 0.878923 2.56018 -0.454476
lowerback 10.3634 1.03412 -0.498861
upperback 0.365906 1.46171 2.5385
thorax -5.51556 0.766423 2.72069
lowerneck -16.2861 -5.39333 -9.08892
upperneck 11.7896 -6.43053 7.82093
head 6.81725 -2.86324 3.31316
rclavicle 4.67144e-015 -2.14687e-014
rhumerus -23.391 -3.72125 -75.357
rradius 43.5012
rwrist 0.545751
rhand -16.794 14.0785
rfingers 7.12502
rthumb 9.43407 -15.6904
lclavicle 4.67144e-015 -2.14687e-014
lhumerus -33.3388 5.14863 80.7461
lradius 38.3818
lwrist 1.86406
lhand -21.5735 21.6546
lfingers 7.12502
lthumb 4.82061 51.5798
rfemur -12.5575 5.17026 20.8256
rtibia 24.3255
rfoot -22.2191 -12.8299
rtoes -0.377936
lfemur -14.4052 -4.24832 -16.6962
ltibia 24.0818
lfoot -25.5752 9.37704
ltoes -11.8229
322
root 0.368301 17.7533 -18.8675 0.714414 2.70574 -0.492762
lowerback 10.3227 1.02205 -0.525605
upperback 0.429913 1.434 2.41848
thorax -5.4212 0.750715 2.61434
lowerneck -16.3966 -5.51323 -9.06667
upperneck 11.843 -6.60947 7.92421
head 6.8721 -2.93668 3.32038
rclavicle 4.07509e-015 3.57812e-014
rhumerus -23.2259 -4.20694 -75.6831
rradius 43.1948
rwrist 1.27563
rhand -17.3007 12.7577
rfingers 7.12502
rthumb 8.94518 -17.0326
lclavicle 4.07509e-015 3.57812e-014
lhumerus -32.9323 5.69742 80.5218
lradius 37.5785
lwrist 0.910416
lhand -22.5915 17.7027
lfingers 7.12502
lthumb 3.83755 47.6478
rfemur -12.3152 5.12168 20.9093
rtibia 24.2377
rfoot -22.1 -13.171
rtoes 0.237247
lfemur -14.264 -4.375 -16.6517
ltibia 24.051
lfoot -25.5283 9.24057
ltoes -12.1985
323
root 0.364758 17.7569 -18.8703 0.491596 2.67991 -0.571227
lowerback 10.4094 0.993462 -0.634228
upperback 0.259058 1.38941 2.45784
thorax -5.65114 0.735125 2.72288
lowerneck -15.6806 -5.3898 -9.21898
upperneck 11.8291 -6.4522 7.82273
head 6.7342 -2.89352 3.34192
rclavicle 5.71506e-015 3.33958e-014
rhumerus -23.5235 -4.20597 -75.8061
rradius 42.8769
rwrist 1.69424
rhand -17.6643 11.9071
rfingers 7.12502
rthumb 8.59432 -17.898
lclavicle 5.71506e-015 3.33958e-014
lhumerus -33.3315 6.25989 80.4668
lradius 37.0192
lwrist 0.713952
lhand -22.4824 19.9925
lfingers 7.12502
lthumb 3.9429 49.9358
rfemur -12.0238 5.15794 21.0383
rtibia 24.14
rfoot -21.9513 -13.2756
rtoes 1.70451
lfemur -13.9894 -4.55688 -16.5627
ltibia 23.9866
lfoot -25.4091 9.1716
ltoes -11.3148
324
root 0.366399 17.759 -18.865 0.258238 2.45319 -0.650771
lowerback 10.1959 1.02571 -0.761324
upperback 0.192587 1.42182 2.53368
thorax -5.60812 0.756025 2.87174
lowerneck -14.9527 -5.23833 -9.43929
upperneck 11.9535 -6.25869 7.75497
head 6.63858 -2.83282 3.38967
rclavicle 1.21259e-014 -2.38542e-015
rhumerus -23.7587 -4.23544 -75.84
rradius 42.2689
rwrist 1.84504
rhand -17.6676 12.1456
rfingers 7.12502
rthumb 8.59111 -17.6596
lclavicle 1.21259e-014 -2.38542e-015
lhumerus -33.7158 6.99793 80.4251
lradius 36.423
lwrist 0.626791
lhand -21.9279 22.0582
lfingers 7.12502
lthumb 4.47838 51.9909
rfemur -11.6972 5.23565 21.1551
rtibia 24.0018
rfoot -21.8614 -13.2573
rtoes 2.36919
lfemur -13.6221 -4.77226 -16.4887
ltibia 23.8774
lfoot -25.2546 9.3865
ltoes -10.0126
325
root 0.370865 17.7597 -18.8609 0.117365 2.33603 -0.652304
lowerback 9.93407 1.10225 -0.785556
upperback 0.246233 1.5139 2.45211
thorax -5.40792 0.798927 2.78881
lowerneck -15.1086 -5.2674 -9.44166
upperneck 12.3897 -6.30581 7.7458
head 6.80914 -2.85266 3.38015
rclavicle 1.50579e-014 5.56597e-015
rhumerus -23.8745 -4.72703 -75.9883
rradius 41.6148
rwrist 1.61022
rhand -17.8399 12.8281
rfingers 7.12502
rthumb 8.42482 -16.9838
lclavicle 1.50579e-014 5.56597e-015
lhumerus -33.6941 7.40487 80.387
lradius 35.941
lwrist 0.202194
lhand -23.2257 19.3709
lfingers 7.12502
lthumb 3.22515 49.3263
rfemur -11.446 5.21483 21.1569
rtibia 23.8364
rfoot -21.769 -13.3951
rtoes 2.33604
lfemur -13.3741 -4.97881 -16.5126
ltibia 23.7628
lfoot -25.3192 9.54873
ltoes -9.89075
326
root 0.373149 17.7614 -18.8589 0.0520518 2.32241 -0.653247
lowerback 9.84953 1.13474 -0.694269
upperback 0.178869 1.5571 2.25318
thorax -5.42503 0.815743 2.52276
lowerneck -15.3985 -5.29554 -9.25889
upperneck 12.7925 -6.38896 7.791
head 6.99146 -2.8729 3.35221
rclavicle -3.52843e-015 7.15625e-015
rhumerus -24.2189 -5.3787 -76.348
rradius 41.3429
rwrist 1.94356
rhand -17.8413 12.6741
rfingers 7.12502
rthumb 8.42352 -17.1379
lclavicle -3.52843e-015 7.15625e-015
lhumerus -33.6675 7.32033 80.3588
lradius 35.3725
lwrist 0.430817
lhand -23.788 19.8325
lfingers 7.12502
lthumb 2.68208 49.7953
rfemur -11.2842 5.13918 21.1483
rtibia 23.6829
rfoot -21.678 -13.6819
rtoes 1.43325
lfemur -13.2353 -5.13916 -16.5334
ltibia 23.6624
lfoot -25.5128 9.58383
ltoes -10.8235
